<?xml version="1.0" encoding="UTF-8" standalone="no"?>
<svg xmlns="http://www.w3.org/2000/svg" contentScriptType="application/ecmascript" contentStyleType="text/css" height="97.2px" preserveAspectRatio="none"
    style="width:534px;height:97px;" version="1.1" viewBox="0 0 534 97" width="534.4px" zoomAndPan="magnify"><defs><filter height="300%" id="f1ncepivzpc92k" width="300%" x="-1" y="-1"><feGaussianBlur result="blurOut" stdDeviation="0.4"/><feColorMatrix in="blurOut" result="blurOut2" type="matrix" values="0 0 0 0 0 0 0 0 0 0 0 0 0 0 0 0 0 0 .4 0"/><feOffset dx="0.8" dy="0.8" in="blurOut2" result="blurOut3"/><feBlend in="SourceGraphic" in2="blurOut3" mode="normal"/></filter></defs><g><!--MD5=[02deaa4d38d1fb5887f5350f7041bf47]
cluster outfitted_flutter_mobile::counters::address_changer.dart--><polygon fill="#FFFFFF" filter="url(#f1ncepivzpc92k)" points="3.2,57.8,84.4,57.8,85.8,62.5219,86.4,62.5219,86.4,86.2,3.2,86.2,3.2,57.8" style="stroke:#000000;stroke-width:0.30000000000000004;"/><line style="stroke:#000000;stroke-width:0.30000000000000004;" x1="3.2" x2="85.8" y1="62.5219" y2="62.5219"/><text fill="#000000" font-family="sans-serif" font-size="2.8" font-weight="bold" lengthAdjust="spacingAndGlyphs" textLength="80" x="4" y="61.1066">outfitted_flutter_mobile::counters::address_changer.dart</text><!--MD5=[11a7ffd249e6e4068679c7dd6695b3c6]
cluster flutter::src::foundation::change_notifier.dart--><polygon fill="#FFFFFF" filter="url(#f1ncepivzpc92k)" points="144.4,12.3,207.2,12.3,208.6,17.0219,209.2,17.0219,209.2,32.3,144.4,32.3,144.4,12.3" style="stroke:#000000;stroke-width:0.30000000000000004;"/><line style="stroke:#000000;stroke-width:0.30000000000000004;" x1="144.4" x2="208.6" y1="17.0219" y2="17.0219"/><text fill="#000000" font-family="sans-serif" font-size="2.8" font-weight="bold" lengthAdjust="spacingAndGlyphs" textLength="61.6" x="145.2" y="15.6066">flutter::src::foundation::change_notifier.dart</text><!--MD5=[5dafef6fbb9fcfb17473c19b7924f241]
cluster outfitted_flutter_mobile::counters::cart_item_counter.dart--><polygon fill="#FFFFFF" filter="url(#f1ncepivzpc92k)" points="91.2,57.8,173.4,57.8,174.8,62.5219,175.4,62.5219,175.4,86.2,91.2,86.2,91.2,57.8" style="stroke:#000000;stroke-width:0.30000000000000004;"/><line style="stroke:#000000;stroke-width:0.30000000000000004;" x1="91.2" x2="174.8" y1="62.5219" y2="62.5219"/><text fill="#000000" font-family="sans-serif" font-size="2.8" font-weight="bold" lengthAdjust="spacingAndGlyphs" textLength="81" x="92" y="61.1066">outfitted_flutter_mobile::counters::cart_item_counter.dart</text><!--MD5=[74658bb80026dde591ad18d77fc82acf]
cluster outfitted_flutter_mobile::counters::item_quantity.dart--><polygon fill="#FFFFFF" filter="url(#f1ncepivzpc92k)" points="180.2,57.8,255.6,57.8,257,62.5219,257.6,62.5219,257.6,86.2,180.2,86.2,180.2,57.8" style="stroke:#000000;stroke-width:0.30000000000000004;"/><line style="stroke:#000000;stroke-width:0.30000000000000004;" x1="180.2" x2="257" y1="62.5219" y2="62.5219"/><text fill="#000000" font-family="sans-serif" font-size="2.8" font-weight="bold" lengthAdjust="spacingAndGlyphs" textLength="74.2" x="181" y="61.1066">outfitted_flutter_mobile::counters::item_quantity.dart</text><!--MD5=[d06cd917a5c38a4cddb40b0829755b34]
cluster outfitted_flutter_mobile::counters::total_amount.dart--><polygon fill="#FFFFFF" filter="url(#f1ncepivzpc92k)" points="262.4,57.8,337.2,57.8,338.6,62.5219,339.2,62.5219,339.2,86.2,262.4,86.2,262.4,57.8" style="stroke:#000000;stroke-width:0.30000000000000004;"/><line style="stroke:#000000;stroke-width:0.30000000000000004;" x1="262.4" x2="338.6" y1="62.5219" y2="62.5219"/><text fill="#000000" font-family="sans-serif" font-size="2.8" font-weight="bold" lengthAdjust="spacingAndGlyphs" textLength="73.6" x="263.2" y="61.1066">outfitted_flutter_mobile::counters::total_amount.dart</text><!--MD5=[f68c7fba52071739aafabe02f317432e]
cluster outfitted_flutter_mobile::model::Address.dart--><polygon fill="#FFFFFF" filter="url(#f1ncepivzpc92k)" points="239.6,1.2,303.8,1.2,305.2,5.9219,305.8,5.9219,305.8,43.4,239.6,43.4,239.6,1.2" style="stroke:#000000;stroke-width:0.30000000000000004;"/><line style="stroke:#000000;stroke-width:0.30000000000000004;" x1="239.6" x2="305.2" y1="5.9219" y2="5.9219"/><text fill="#000000" font-family="sans-serif" font-size="2.8" font-weight="bold" lengthAdjust="spacingAndGlyphs" textLength="63" x="240.4" y="4.5066">outfitted_flutter_mobile::model::Address.dart</text><!--MD5=[9906a96357642790e912c4a89371d4d4]
cluster outfitted_flutter_mobile::model::Cart.dart--><polygon fill="#FFFFFF" filter="url(#f1ncepivzpc92k)" points="314,9.5,372.4,9.5,373.8,14.2219,374.4,14.2219,374.4,35.1,314,35.1,314,9.5" style="stroke:#000000;stroke-width:0.30000000000000004;"/><line style="stroke:#000000;stroke-width:0.30000000000000004;" x1="314" x2="373.8" y1="14.2219" y2="14.2219"/><text fill="#000000" font-family="sans-serif" font-size="2.8" font-weight="bold" lengthAdjust="spacingAndGlyphs" textLength="57.2" x="314.8" y="12.8066">outfitted_flutter_mobile::model::Cart.dart</text><!--MD5=[7fff8a5ca86ded4c20ee0c8d971eeefe]
cluster outfitted_flutter_mobile::model::Product.dart--><polygon fill="#FFFFFF" filter="url(#f1ncepivzpc92k)" points="344,48.2,407.6,48.2,409,52.9219,409.6,52.9219,409.6,95.8,344,95.8,344,48.2" style="stroke:#000000;stroke-width:0.30000000000000004;"/><line style="stroke:#000000;stroke-width:0.30000000000000004;" x1="344" x2="409" y1="52.9219" y2="52.9219"/><text fill="#000000" font-family="sans-serif" font-size="2.8" font-weight="bold" lengthAdjust="spacingAndGlyphs" textLength="62.4" x="344.8" y="51.5066">outfitted_flutter_mobile::model::Product.dart</text><!--MD5=[cec7a20d5e074c2d8ff9459b5ba4d467]
cluster outfitted_flutter_mobile::model::CollectionCategory.dart--><polygon fill="#FFFFFF" filter="url(#f1ncepivzpc92k)" points="449.6,6.8,529,6.8,530.4,11.5219,531,11.5219,531,37.8,449.6,37.8,449.6,6.8" style="stroke:#000000;stroke-width:0.30000000000000004;"/><line style="stroke:#000000;stroke-width:0.30000000000000004;" x1="449.6" x2="530.4" y1="11.5219" y2="11.5219"/><text fill="#000000" font-family="sans-serif" font-size="2.8" font-weight="bold" lengthAdjust="spacingAndGlyphs" textLength="78.2" x="450.4" y="10.1066">outfitted_flutter_mobile::model::CollectionCategory.dart</text><!--MD5=[77390529414e35c7645e38c3654a19d9]
cluster outfitted_flutter_mobile::model::Wishlist.dart--><polygon fill="#FFFFFF" filter="url(#f1ncepivzpc92k)" points="379.2,10.9,442.8,10.9,444.2,15.6219,444.8,15.6219,444.8,33.7,379.2,33.7,379.2,10.9" style="stroke:#000000;stroke-width:0.30000000000000004;"/><line style="stroke:#000000;stroke-width:0.30000000000000004;" x1="379.2" x2="444.2" y1="15.6219" y2="15.6219"/><text fill="#000000" font-family="sans-serif" font-size="2.8" font-weight="bold" lengthAdjust="spacingAndGlyphs" textLength="62.4" x="380" y="14.2066">outfitted_flutter_mobile::model::Wishlist.dart</text><!--MD5=[d2b37e88a9c757bbcf8ff017b9e3fc7b]
class outfitted_flutter_mobile::counters::address_changer.dart::AddressChanger--><rect codeLine="3" fill="#FEFECE" filter="url(#f1ncepivzpc92k)" height="17.9016" id="outfitted_flutter_mobile::counters::address_changer.dart::AddressChanger" style="stroke:#A80036;stroke-width:0.30000000000000004;" width="28.2" x="54.9" y="65"/><ellipse cx="59.25" cy="68.2" fill="#ADD1B2" rx="2.2" ry="2.2" style="stroke:#A80036;stroke-width:0.2;"/><path d="M59.65,67.5 Q59.6906,67.4 59.7375,67.35 Q59.7844,67.3 59.8375,67.3 Q59.9313,67.3 59.9906,67.3563 Q60.05,67.4125 60.05,67.5438 L60.05,67.8563 Q60.05,67.9875 59.9938,68.0438 Q59.9375,68.1 59.85,68.1 Q59.7719,68.1 59.7219,68.0656 Q59.6719,68.0313 59.65,67.9406 Q59.6406,67.8781 59.6063,67.8438 Q59.5438,67.7781 59.4313,67.7406 Q59.3188,67.7 59.2063,67.7 Q59.0656,67.7 58.9469,67.7563 Q58.8313,67.8125 58.7406,67.9375 Q58.65,68.0625 58.65,68.2344 L58.65,68.4188 Q58.65,68.625 58.8188,68.7625 Q58.9875,68.9 59.2875,68.9 Q59.4656,68.9 59.5906,68.8594 Q59.6625,68.8375 59.7438,68.7656 Q59.7969,68.725 59.825,68.7125 Q59.8531,68.7 59.8875,68.7 Q59.9531,68.7 60,68.7531 Q60.05,68.8031 60.05,68.875 Q60.05,68.9438 59.9813,69.025 Q59.8813,69.1438 59.7219,69.2094 Q59.5125,69.3 59.2563,69.3 Q58.9563,69.3 58.7156,69.1813 Q58.5219,69.0875 58.3844,68.8844 Q58.25,68.6813 58.25,68.4406 L58.25,68.2219 Q58.25,67.9719 58.3688,67.7531 Q58.4906,67.5344 58.7,67.4188 Q58.9125,67.3 59.15,67.3 Q59.2938,67.3 59.4188,67.35 Q59.5438,67.4 59.65,67.5 Z " fill="#000000"/><text fill="#000000" font-family="sans-serif" font-size="2.4" lengthAdjust="spacingAndGlyphs" textLength="18.8" x="62.35" y="69.182">AddressChanger</text><line style="stroke:#A80036;stroke-width:0.30000000000000004;" x1="55.1" x2="82.9" y1="71.4" y2="71.4"/><rect fill="none" height="1.2" style="stroke:#C82930;stroke-width:0.2;" width="1.2" x="56.5" y="73"/><text fill="#000000" font-family="sans-serif" font-size="2.2" lengthAdjust="spacingAndGlyphs" textLength="11.4" x="58.9" y="74.4838">int _counter</text><ellipse cx="57.1" cy="76.3672" fill="none" rx="0.6" ry="0.6" style="stroke:#038048;stroke-width:0.2;"/><text fill="#000000" font-family="sans-serif" font-size="2.2" lengthAdjust="spacingAndGlyphs" textLength="8.2" x="58.9" y="77.251">int count</text><line style="stroke:#A80036;stroke-width:0.30000000000000004;" x1="55.1" x2="82.9" y1="78.5344" y2="78.5344"/><ellipse cx="57.1" cy="80.7344" fill="#84BE84" rx="0.6" ry="0.6" style="stroke:#038048;stroke-width:0.2;"/><text fill="#000000" font-family="sans-serif" font-size="2.2" lengthAdjust="spacingAndGlyphs" textLength="23" x="58.9" y="81.6182">dynamic displayResult()</text><!--MD5=[4bdc211f364e4b76e397883af82a26e7]
class flutter::src::foundation::change_notifier.dart::ChangeNotifier--><rect fill="#FEFECE" filter="url(#f1ncepivzpc92k)" height="9.6" id="flutter::src::foundation::change_notifier.dart::ChangeNotifier" style="stroke:#A80036;stroke-width:0.30000000000000004;" width="23" x="165.3" y="19.5"/><ellipse cx="168.3" cy="22.7" fill="#ADD1B2" rx="2.2" ry="2.2" style="stroke:#A80036;stroke-width:0.2;"/><path d="M168.7,22 Q168.7406,21.9 168.7875,21.85 Q168.8344,21.8 168.8875,21.8 Q168.9813,21.8 169.0406,21.8563 Q169.1,21.9125 169.1,22.0438 L169.1,22.3563 Q169.1,22.4875 169.0438,22.5438 Q168.9875,22.6 168.9,22.6 Q168.8219,22.6 168.7719,22.5656 Q168.7219,22.5313 168.7,22.4406 Q168.6906,22.3781 168.6563,22.3438 Q168.5938,22.2781 168.4813,22.2406 Q168.3688,22.2 168.2563,22.2 Q168.1156,22.2 167.9969,22.2563 Q167.8813,22.3125 167.7906,22.4375 Q167.7,22.5625 167.7,22.7344 L167.7,22.9188 Q167.7,23.125 167.8688,23.2625 Q168.0375,23.4 168.3375,23.4 Q168.5156,23.4 168.6406,23.3594 Q168.7125,23.3375 168.7938,23.2656 Q168.8469,23.225 168.875,23.2125 Q168.9031,23.2 168.9375,23.2 Q169.0031,23.2 169.05,23.2531 Q169.1,23.3031 169.1,23.375 Q169.1,23.4438 169.0313,23.525 Q168.9313,23.6438 168.7719,23.7094 Q168.5625,23.8 168.3063,23.8 Q168.0063,23.8 167.7656,23.6813 Q167.5719,23.5875 167.4344,23.3844 Q167.3,23.1813 167.3,22.9406 L167.3,22.7219 Q167.3,22.4719 167.4188,22.2531 Q167.5406,22.0344 167.75,21.9188 Q167.9625,21.8 168.2,21.8 Q168.3438,21.8 168.4688,21.85 Q168.5938,21.9 168.7,22 Z " fill="#000000"/><text fill="#000000" font-family="sans-serif" font-size="2.4" lengthAdjust="spacingAndGlyphs" textLength="16.6" x="171.1" y="23.682">ChangeNotifier</text><line style="stroke:#A80036;stroke-width:0.30000000000000004;" x1="165.5" x2="188.1" y1="25.9" y2="25.9"/><line style="stroke:#A80036;stroke-width:0.30000000000000004;" x1="165.5" x2="188.1" y1="27.5" y2="27.5"/><!--MD5=[b7f8c20fc02c0aab8fde6ec02ea572ac]
class outfitted_flutter_mobile::counters::cart_item_counter.dart::CartItemCounter--><rect codeLine="11" fill="#FEFECE" filter="url(#f1ncepivzpc92k)" height="17.9016" id="outfitted_flutter_mobile::counters::cart_item_counter.dart::CartItemCounter" style="stroke:#A80036;stroke-width:0.30000000000000004;" width="37.8" x="134.3" y="65"/><ellipse cx="143.25" cy="68.2" fill="#ADD1B2" rx="2.2" ry="2.2" style="stroke:#A80036;stroke-width:0.2;"/><path d="M143.65,67.5 Q143.6906,67.4 143.7375,67.35 Q143.7844,67.3 143.8375,67.3 Q143.9313,67.3 143.9906,67.3563 Q144.05,67.4125 144.05,67.5438 L144.05,67.8563 Q144.05,67.9875 143.9938,68.0438 Q143.9375,68.1 143.85,68.1 Q143.7719,68.1 143.7219,68.0656 Q143.6719,68.0313 143.65,67.9406 Q143.6406,67.8781 143.6063,67.8438 Q143.5438,67.7781 143.4313,67.7406 Q143.3188,67.7 143.2063,67.7 Q143.0656,67.7 142.9469,67.7563 Q142.8313,67.8125 142.7406,67.9375 Q142.65,68.0625 142.65,68.2344 L142.65,68.4188 Q142.65,68.625 142.8188,68.7625 Q142.9875,68.9 143.2875,68.9 Q143.4656,68.9 143.5906,68.8594 Q143.6625,68.8375 143.7438,68.7656 Q143.7969,68.725 143.825,68.7125 Q143.8531,68.7 143.8875,68.7 Q143.9531,68.7 144,68.7531 Q144.05,68.8031 144.05,68.875 Q144.05,68.9438 143.9813,69.025 Q143.8813,69.1438 143.7219,69.2094 Q143.5125,69.3 143.2563,69.3 Q142.9563,69.3 142.7156,69.1813 Q142.5219,69.0875 142.3844,68.8844 Q142.25,68.6813 142.25,68.4406 L142.25,68.2219 Q142.25,67.9719 142.3688,67.7531 Q142.4906,67.5344 142.7,67.4188 Q142.9125,67.3 143.15,67.3 Q143.2938,67.3 143.4188,67.35 Q143.5438,67.4 143.65,67.5 Z " fill="#000000"/><text fill="#000000" font-family="sans-serif" font-size="2.4" lengthAdjust="spacingAndGlyphs" textLength="18.2" x="147.35" y="69.182">CartItemCounter</text><line style="stroke:#A80036;stroke-width:0.30000000000000004;" x1="134.5" x2="171.9" y1="71.4" y2="71.4"/><rect fill="none" height="1.2" style="stroke:#C82930;stroke-width:0.2;" width="1.2" x="135.9" y="73"/><text fill="#000000" font-family="sans-serif" font-size="2.2" lengthAdjust="spacingAndGlyphs" textLength="11.4" x="138.3" y="74.4838">int _counter</text><ellipse cx="136.5" cy="76.3672" fill="none" rx="0.6" ry="0.6" style="stroke:#038048;stroke-width:0.2;"/><text fill="#000000" font-family="sans-serif" font-size="2.2" lengthAdjust="spacingAndGlyphs" textLength="8.2" x="138.3" y="77.251">int count</text><line style="stroke:#A80036;stroke-width:0.30000000000000004;" x1="134.5" x2="171.9" y1="78.5344" y2="78.5344"/><ellipse cx="136.5" cy="80.7344" fill="#84BE84" rx="0.6" ry="0.6" style="stroke:#038048;stroke-width:0.2;"/><text fill="#000000" font-family="sans-serif" font-size="2.2" lengthAdjust="spacingAndGlyphs" textLength="32.6" x="138.3" y="81.6182">Future displayItemCounterResult()</text><!--MD5=[3a525baaf5a9e190944f69e9cb4de6bb]
class outfitted_flutter_mobile::counters::item_quantity.dart::ItemQuantity--><rect codeLine="19" fill="#FEFECE" filter="url(#f1ncepivzpc92k)" height="17.9016" id="outfitted_flutter_mobile::counters::item_quantity.dart::ItemQuantity" style="stroke:#A80036;stroke-width:0.30000000000000004;" width="34" x="183.4" y="65"/><ellipse cx="192.75" cy="68.2" fill="#ADD1B2" rx="2.2" ry="2.2" style="stroke:#A80036;stroke-width:0.2;"/><path d="M193.15,67.5 Q193.1906,67.4 193.2375,67.35 Q193.2844,67.3 193.3375,67.3 Q193.4313,67.3 193.4906,67.3563 Q193.55,67.4125 193.55,67.5438 L193.55,67.8563 Q193.55,67.9875 193.4938,68.0438 Q193.4375,68.1 193.35,68.1 Q193.2719,68.1 193.2219,68.0656 Q193.1719,68.0313 193.15,67.9406 Q193.1406,67.8781 193.1063,67.8438 Q193.0438,67.7781 192.9313,67.7406 Q192.8188,67.7 192.7063,67.7 Q192.5656,67.7 192.4469,67.7563 Q192.3313,67.8125 192.2406,67.9375 Q192.15,68.0625 192.15,68.2344 L192.15,68.4188 Q192.15,68.625 192.3188,68.7625 Q192.4875,68.9 192.7875,68.9 Q192.9656,68.9 193.0906,68.8594 Q193.1625,68.8375 193.2438,68.7656 Q193.2969,68.725 193.325,68.7125 Q193.3531,68.7 193.3875,68.7 Q193.4531,68.7 193.5,68.7531 Q193.55,68.8031 193.55,68.875 Q193.55,68.9438 193.4813,69.025 Q193.3813,69.1438 193.2219,69.2094 Q193.0125,69.3 192.7563,69.3 Q192.4563,69.3 192.2156,69.1813 Q192.0219,69.0875 191.8844,68.8844 Q191.75,68.6813 191.75,68.4406 L191.75,68.2219 Q191.75,67.9719 191.8688,67.7531 Q191.9906,67.5344 192.2,67.4188 Q192.4125,67.3 192.65,67.3 Q192.7938,67.3 192.9188,67.35 Q193.0438,67.4 193.15,67.5 Z " fill="#000000"/><text fill="#000000" font-family="sans-serif" font-size="2.4" lengthAdjust="spacingAndGlyphs" textLength="13.6" x="196.85" y="69.182">ItemQuantity</text><line style="stroke:#A80036;stroke-width:0.30000000000000004;" x1="183.6" x2="217.2" y1="71.4" y2="71.4"/><rect fill="none" height="1.2" style="stroke:#C82930;stroke-width:0.2;" width="1.2" x="185" y="73"/><text fill="#000000" font-family="sans-serif" font-size="2.2" lengthAdjust="spacingAndGlyphs" textLength="18.6" x="187.4" y="74.4838">int _numberOfItems</text><ellipse cx="185.6" cy="76.3672" fill="none" rx="0.6" ry="0.6" style="stroke:#038048;stroke-width:0.2;"/><text fill="#000000" font-family="sans-serif" font-size="2.2" lengthAdjust="spacingAndGlyphs" textLength="17.4" x="187.4" y="77.251">int numberOfItems</text><line style="stroke:#A80036;stroke-width:0.30000000000000004;" x1="183.6" x2="217.2" y1="78.5344" y2="78.5344"/><ellipse cx="185.6" cy="80.7344" fill="#84BE84" rx="0.6" ry="0.6" style="stroke:#038048;stroke-width:0.2;"/><text fill="#000000" font-family="sans-serif" font-size="2.2" lengthAdjust="spacingAndGlyphs" textLength="28.8" x="187.4" y="81.6182">dynamic displayItemQuantity()</text><!--MD5=[3fc8826a9cc29e42aba6905b5ad8f121]
class outfitted_flutter_mobile::counters::total_amount.dart::TotalAmount--><rect codeLine="27" fill="#FEFECE" filter="url(#f1ncepivzpc92k)" height="17.9016" id="outfitted_flutter_mobile::counters::total_amount.dart::TotalAmount" style="stroke:#A80036;stroke-width:0.30000000000000004;" width="40.2" x="265.7" y="65"/><ellipse cx="278.05" cy="68.2" fill="#ADD1B2" rx="2.2" ry="2.2" style="stroke:#A80036;stroke-width:0.2;"/><path d="M278.45,67.5 Q278.4906,67.4 278.5375,67.35 Q278.5844,67.3 278.6375,67.3 Q278.7313,67.3 278.7906,67.3563 Q278.85,67.4125 278.85,67.5438 L278.85,67.8563 Q278.85,67.9875 278.7938,68.0438 Q278.7375,68.1 278.65,68.1 Q278.5719,68.1 278.5219,68.0656 Q278.4719,68.0313 278.45,67.9406 Q278.4406,67.8781 278.4063,67.8438 Q278.3438,67.7781 278.2313,67.7406 Q278.1188,67.7 278.0063,67.7 Q277.8656,67.7 277.7469,67.7563 Q277.6313,67.8125 277.5406,67.9375 Q277.45,68.0625 277.45,68.2344 L277.45,68.4188 Q277.45,68.625 277.6188,68.7625 Q277.7875,68.9 278.0875,68.9 Q278.2656,68.9 278.3906,68.8594 Q278.4625,68.8375 278.5438,68.7656 Q278.5969,68.725 278.625,68.7125 Q278.6531,68.7 278.6875,68.7 Q278.7531,68.7 278.8,68.7531 Q278.85,68.8031 278.85,68.875 Q278.85,68.9438 278.7813,69.025 Q278.6813,69.1438 278.5219,69.2094 Q278.3125,69.3 278.0563,69.3 Q277.7563,69.3 277.5156,69.1813 Q277.3219,69.0875 277.1844,68.8844 Q277.05,68.6813 277.05,68.4406 L277.05,68.2219 Q277.05,67.9719 277.1688,67.7531 Q277.2906,67.5344 277.5,67.4188 Q277.7125,67.3 277.95,67.3 Q278.0938,67.3 278.2188,67.35 Q278.3438,67.4 278.45,67.5 Z " fill="#000000"/><text fill="#000000" font-family="sans-serif" font-size="2.4" lengthAdjust="spacingAndGlyphs" textLength="13.8" x="282.15" y="69.182">TotalAmount</text><line style="stroke:#A80036;stroke-width:0.30000000000000004;" x1="265.9" x2="305.7" y1="71.4" y2="71.4"/><rect fill="none" height="1.2" style="stroke:#C82930;stroke-width:0.2;" width="1.2" x="267.3" y="73"/><text fill="#000000" font-family="sans-serif" font-size="2.2" lengthAdjust="spacingAndGlyphs" textLength="19.6" x="269.7" y="74.4838">double _totalAmount</text><ellipse cx="267.9" cy="76.3672" fill="none" rx="0.6" ry="0.6" style="stroke:#038048;stroke-width:0.2;"/><text fill="#000000" font-family="sans-serif" font-size="2.2" lengthAdjust="spacingAndGlyphs" textLength="18.4" x="269.7" y="77.251">double totalAmount</text><line style="stroke:#A80036;stroke-width:0.30000000000000004;" x1="265.9" x2="305.7" y1="78.5344" y2="78.5344"/><ellipse cx="267.9" cy="80.7344" fill="#84BE84" rx="0.6" ry="0.6" style="stroke:#038048;stroke-width:0.2;"/><text fill="#000000" font-family="sans-serif" font-size="2.2" lengthAdjust="spacingAndGlyphs" textLength="35" x="269.7" y="81.6182">dynamic displayTotalAmountResult()</text><!--MD5=[85bfa192e7d0bd075e141f65d0c586b8]
class outfitted_flutter_mobile::model::Address.dart::Address--><rect codeLine="35" fill="#FEFECE" filter="url(#f1ncepivzpc92k)" height="31.7375" id="outfitted_flutter_mobile::model::Address.dart::Address" style="stroke:#A80036;stroke-width:0.30000000000000004;" width="36.6" x="254.3" y="8.4"/><ellipse cx="267.15" cy="11.6" fill="#ADD1B2" rx="2.2" ry="2.2" style="stroke:#A80036;stroke-width:0.2;"/><path d="M267.55,10.9 Q267.5906,10.8 267.6375,10.75 Q267.6844,10.7 267.7375,10.7 Q267.8313,10.7 267.8906,10.7563 Q267.95,10.8125 267.95,10.9438 L267.95,11.2563 Q267.95,11.3875 267.8938,11.4438 Q267.8375,11.5 267.75,11.5 Q267.6719,11.5 267.6219,11.4656 Q267.5719,11.4313 267.55,11.3406 Q267.5406,11.2781 267.5063,11.2438 Q267.4438,11.1781 267.3313,11.1406 Q267.2188,11.1 267.1063,11.1 Q266.9656,11.1 266.8469,11.1563 Q266.7313,11.2125 266.6406,11.3375 Q266.55,11.4625 266.55,11.6344 L266.55,11.8188 Q266.55,12.025 266.7188,12.1625 Q266.8875,12.3 267.1875,12.3 Q267.3656,12.3 267.4906,12.2594 Q267.5625,12.2375 267.6438,12.1656 Q267.6969,12.125 267.725,12.1125 Q267.7531,12.1 267.7875,12.1 Q267.8531,12.1 267.9,12.1531 Q267.95,12.2031 267.95,12.275 Q267.95,12.3438 267.8813,12.425 Q267.7813,12.5438 267.6219,12.6094 Q267.4125,12.7 267.1563,12.7 Q266.8563,12.7 266.6156,12.5813 Q266.4219,12.4875 266.2844,12.2844 Q266.15,12.0813 266.15,11.8406 L266.15,11.6219 Q266.15,11.3719 266.2688,11.1531 Q266.3906,10.9344 266.6,10.8188 Q266.8125,10.7 267.05,10.7 Q267.1938,10.7 267.3188,10.75 Q267.4438,10.8 267.55,10.9 Z " fill="#000000"/><text fill="#000000" font-family="sans-serif" font-size="2.4" lengthAdjust="spacingAndGlyphs" textLength="9.2" x="271.25" y="12.582">Address</text><line style="stroke:#A80036;stroke-width:0.30000000000000004;" x1="254.5" x2="290.7" y1="14.8" y2="14.8"/><ellipse cx="256.5" cy="17" fill="none" rx="0.6" ry="0.6" style="stroke:#038048;stroke-width:0.2;"/><text fill="#000000" font-family="sans-serif" font-size="2.2" lengthAdjust="spacingAndGlyphs" textLength="11.4" x="258.3" y="17.8838">String name</text><ellipse cx="256.5" cy="19.7672" fill="none" rx="0.6" ry="0.6" style="stroke:#038048;stroke-width:0.2;"/><text fill="#000000" font-family="sans-serif" font-size="2.2" lengthAdjust="spacingAndGlyphs" textLength="23.2" x="258.3" y="20.651">String streetAndNumber</text><ellipse cx="256.5" cy="22.5344" fill="none" rx="0.6" ry="0.6" style="stroke:#038048;stroke-width:0.2;"/><text fill="#000000" font-family="sans-serif" font-size="2.2" lengthAdjust="spacingAndGlyphs" textLength="15.4" x="258.3" y="23.4182">String postCode</text><ellipse cx="256.5" cy="25.3016" fill="none" rx="0.6" ry="0.6" style="stroke:#038048;stroke-width:0.2;"/><text fill="#000000" font-family="sans-serif" font-size="2.2" lengthAdjust="spacingAndGlyphs" textLength="17.6" x="258.3" y="26.1854">String cityOrTown</text><ellipse cx="256.5" cy="28.0688" fill="none" rx="0.6" ry="0.6" style="stroke:#038048;stroke-width:0.2;"/><text fill="#000000" font-family="sans-serif" font-size="2.2" lengthAdjust="spacingAndGlyphs" textLength="12.2" x="258.3" y="28.9525">String phone</text><ellipse cx="256.5" cy="30.8359" fill="none" rx="0.6" ry="0.6" style="stroke:#038048;stroke-width:0.2;"/><text fill="#000000" font-family="sans-serif" font-size="2.2" lengthAdjust="spacingAndGlyphs" textLength="13.6" x="258.3" y="31.7197">String country</text><line style="stroke:#A80036;stroke-width:0.30000000000000004;" x1="254.5" x2="290.7" y1="33.0031" y2="33.0031"/><ellipse cx="256.5" cy="35.2031" fill="#84BE84" rx="0.6" ry="0.6" style="stroke:#038048;stroke-width:0.2;"/><text fill="#000000" font-family="sans-serif" font-size="2.2" lengthAdjust="spacingAndGlyphs" textLength="27.8" x="258.3" y="36.0869">Map createAddressToJson()</text><ellipse cx="256.5" cy="37.9703" fill="#84BE84" rx="0.6" ry="0.6" style="stroke:#038048;stroke-width:0.2;"/><text fill="#000000" font-family="sans-serif" font-size="2.2" lengthAdjust="spacingAndGlyphs" textLength="31.4" x="258.3" y="38.8541">Address getAddressFromJson()</text><!--MD5=[076a79b6520eac9a7fbaa44ebe792977]
class outfitted_flutter_mobile::model::Cart.dart::Cart--><rect codeLine="46" fill="#FEFECE" filter="url(#f1ncepivzpc92k)" height="15.1344" id="outfitted_flutter_mobile::model::Cart.dart::Cart" style="stroke:#A80036;stroke-width:0.30000000000000004;" width="20.6" x="350.5" y="16.7"/><ellipse cx="357.82" cy="19.9" fill="#ADD1B2" rx="2.2" ry="2.2" style="stroke:#A80036;stroke-width:0.2;"/><path d="M358.22,19.2 Q358.2606,19.1 358.3075,19.05 Q358.3544,19 358.4075,19 Q358.5013,19 358.5606,19.0563 Q358.62,19.1125 358.62,19.2438 L358.62,19.5563 Q358.62,19.6875 358.5638,19.7438 Q358.5075,19.8 358.42,19.8 Q358.3419,19.8 358.2919,19.7656 Q358.2419,19.7313 358.22,19.6406 Q358.2106,19.5781 358.1763,19.5438 Q358.1138,19.4781 358.0013,19.4406 Q357.8888,19.4 357.7763,19.4 Q357.6356,19.4 357.5169,19.4563 Q357.4013,19.5125 357.3106,19.6375 Q357.22,19.7625 357.22,19.9344 L357.22,20.1188 Q357.22,20.325 357.3888,20.4625 Q357.5575,20.6 357.8575,20.6 Q358.0356,20.6 358.1606,20.5594 Q358.2325,20.5375 358.3138,20.4656 Q358.3669,20.425 358.395,20.4125 Q358.4231,20.4 358.4575,20.4 Q358.5231,20.4 358.57,20.4531 Q358.62,20.5031 358.62,20.575 Q358.62,20.6438 358.5513,20.725 Q358.4513,20.8438 358.2919,20.9094 Q358.0825,21 357.8263,21 Q357.5263,21 357.2856,20.8813 Q357.0919,20.7875 356.9544,20.5844 Q356.82,20.3813 356.82,20.1406 L356.82,19.9219 Q356.82,19.6719 356.9388,19.4531 Q357.0606,19.2344 357.27,19.1188 Q357.4825,19 357.72,19 Q357.8638,19 357.9888,19.05 Q358.1138,19.1 358.22,19.2 Z " fill="#000000"/><text fill="#000000" font-family="sans-serif" font-size="2.4" lengthAdjust="spacingAndGlyphs" textLength="4.6" x="361.58" y="20.882">Cart</text><line style="stroke:#A80036;stroke-width:0.30000000000000004;" x1="350.7" x2="370.9" y1="23.1" y2="23.1"/><ellipse cx="352.7" cy="25.3" fill="none" rx="0.6" ry="0.6" style="stroke:#038048;stroke-width:0.2;"/><text fill="#000000" font-family="sans-serif" font-size="2.2" lengthAdjust="spacingAndGlyphs" textLength="15.4" x="354.5" y="26.1838">Product product</text><ellipse cx="352.7" cy="28.0672" fill="none" rx="0.6" ry="0.6" style="stroke:#038048;stroke-width:0.2;"/><text fill="#000000" font-family="sans-serif" font-size="2.2" lengthAdjust="spacingAndGlyphs" textLength="14.8" x="354.5" y="28.951">int amountItems</text><line style="stroke:#A80036;stroke-width:0.30000000000000004;" x1="350.7" x2="370.9" y1="30.2344" y2="30.2344"/><!--MD5=[547b6a647d5d1b3cfcd10875473c75d3]
class outfitted_flutter_mobile::model::Product.dart::Product--><rect codeLine="60" fill="#FEFECE" filter="url(#f1ncepivzpc92k)" height="37.2719" id="outfitted_flutter_mobile::model::Product.dart::Product" style="stroke:#A80036;stroke-width:0.30000000000000004;" width="34.6" x="359.5" y="55.4"/><ellipse cx="371.75" cy="58.6" fill="#ADD1B2" rx="2.2" ry="2.2" style="stroke:#A80036;stroke-width:0.2;"/><path d="M372.15,57.9 Q372.1906,57.8 372.2375,57.75 Q372.2844,57.7 372.3375,57.7 Q372.4313,57.7 372.4906,57.7563 Q372.55,57.8125 372.55,57.9438 L372.55,58.2563 Q372.55,58.3875 372.4938,58.4438 Q372.4375,58.5 372.35,58.5 Q372.2719,58.5 372.2219,58.4656 Q372.1719,58.4313 372.15,58.3406 Q372.1406,58.2781 372.1063,58.2438 Q372.0438,58.1781 371.9313,58.1406 Q371.8188,58.1 371.7063,58.1 Q371.5656,58.1 371.4469,58.1563 Q371.3313,58.2125 371.2406,58.3375 Q371.15,58.4625 371.15,58.6344 L371.15,58.8188 Q371.15,59.025 371.3188,59.1625 Q371.4875,59.3 371.7875,59.3 Q371.9656,59.3 372.0906,59.2594 Q372.1625,59.2375 372.2438,59.1656 Q372.2969,59.125 372.325,59.1125 Q372.3531,59.1 372.3875,59.1 Q372.4531,59.1 372.5,59.1531 Q372.55,59.2031 372.55,59.275 Q372.55,59.3438 372.4813,59.425 Q372.3813,59.5438 372.2219,59.6094 Q372.0125,59.7 371.7563,59.7 Q371.4563,59.7 371.2156,59.5813 Q371.0219,59.4875 370.8844,59.2844 Q370.75,59.0813 370.75,58.8406 L370.75,58.6219 Q370.75,58.3719 370.8688,58.1531 Q370.9906,57.9344 371.2,57.8188 Q371.4125,57.7 371.65,57.7 Q371.7938,57.7 371.9188,57.75 Q372.0438,57.8 372.15,57.9 Z " fill="#000000"/><text fill="#000000" font-family="sans-serif" font-size="2.4" lengthAdjust="spacingAndGlyphs" textLength="8.4" x="375.85" y="59.582">Product</text><line style="stroke:#A80036;stroke-width:0.30000000000000004;" x1="359.7" x2="393.9" y1="61.8" y2="61.8"/><ellipse cx="361.7" cy="64" fill="none" rx="0.6" ry="0.6" style="stroke:#038048;stroke-width:0.2;"/><text fill="#000000" font-family="sans-serif" font-size="2.2" lengthAdjust="spacingAndGlyphs" textLength="7.8" x="363.5" y="64.8838">String id</text><ellipse cx="361.7" cy="66.7672" fill="none" rx="0.6" ry="0.6" style="stroke:#038048;stroke-width:0.2;"/><text fill="#000000" font-family="sans-serif" font-size="2.2" lengthAdjust="spacingAndGlyphs" textLength="11.4" x="363.5" y="67.651">String name</text><ellipse cx="361.7" cy="69.5344" fill="none" rx="0.6" ry="0.6" style="stroke:#038048;stroke-width:0.2;"/><text fill="#000000" font-family="sans-serif" font-size="2.2" lengthAdjust="spacingAndGlyphs" textLength="19.2" x="363.5" y="70.4182">String productImage</text><ellipse cx="361.7" cy="72.3016" fill="none" rx="0.6" ry="0.6" style="stroke:#038048;stroke-width:0.2;"/><text fill="#000000" font-family="sans-serif" font-size="2.2" lengthAdjust="spacingAndGlyphs" textLength="13.8" x="363.5" y="73.1854">String supplier</text><ellipse cx="361.7" cy="75.0688" fill="none" rx="0.6" ry="0.6" style="stroke:#038048;stroke-width:0.2;"/><text fill="#000000" font-family="sans-serif" font-size="2.2" lengthAdjust="spacingAndGlyphs" textLength="24.4" x="363.5" y="75.9525">String productDescription</text><ellipse cx="361.7" cy="77.8359" fill="none" rx="0.6" ry="0.6" style="stroke:#038048;stroke-width:0.2;"/><text fill="#000000" font-family="sans-serif" font-size="2.2" lengthAdjust="spacingAndGlyphs" textLength="8" x="363.5" y="78.7197">int stock</text><ellipse cx="361.7" cy="80.6031" fill="none" rx="0.6" ry="0.6" style="stroke:#038048;stroke-width:0.2;"/><text fill="#000000" font-family="sans-serif" font-size="2.2" lengthAdjust="spacingAndGlyphs" textLength="11.8" x="363.5" y="81.4869">double price</text><line style="stroke:#A80036;stroke-width:0.30000000000000004;" x1="359.7" x2="393.9" y1="82.7703" y2="82.7703"/><ellipse cx="361.7" cy="84.9703" fill="#84BE84" rx="0.6" ry="0.6" style="stroke:#038048;stroke-width:0.2;"/><text fill="#000000" font-family="sans-serif" font-size="2.2" lengthAdjust="spacingAndGlyphs" textLength="29.4" x="363.5" y="85.8541">Product getProductFromJson()</text><ellipse cx="361.7" cy="87.7375" fill="#84BE84" rx="0.6" ry="0.6" style="stroke:#038048;stroke-width:0.2;"/><text fill="#000000" font-family="sans-serif" font-size="2.2" lengthAdjust="spacingAndGlyphs" textLength="12.6" x="363.5" y="88.6213">Map toJson()</text><ellipse cx="361.7" cy="90.5047" fill="#84BE84" rx="0.6" ry="0.6" style="stroke:#038048;stroke-width:0.2;"/><text fill="#000000" font-family="sans-serif" font-size="2.2" lengthAdjust="spacingAndGlyphs" textLength="15.8" x="363.5" y="91.3885">Map toJsonApi()</text><!--MD5=[73897119014e396eb7d36f65feb2b63c]
class outfitted_flutter_mobile::model::CollectionCategory.dart::CollectionCategory--><rect codeLine="53" fill="#FEFECE" filter="url(#f1ncepivzpc92k)" height="20.6688" id="outfitted_flutter_mobile::model::CollectionCategory.dart::CollectionCategory" style="stroke:#A80036;stroke-width:0.30000000000000004;" width="28" x="476.2" y="14"/><ellipse cx="479.56" cy="17.2" fill="#ADD1B2" rx="2.2" ry="2.2" style="stroke:#A80036;stroke-width:0.2;"/><path d="M479.96,16.5 Q480.0006,16.4 480.0475,16.35 Q480.0944,16.3 480.1475,16.3 Q480.2413,16.3 480.3006,16.3563 Q480.36,16.4125 480.36,16.5438 L480.36,16.8563 Q480.36,16.9875 480.3038,17.0438 Q480.2475,17.1 480.16,17.1 Q480.0819,17.1 480.0319,17.0656 Q479.9819,17.0313 479.96,16.9406 Q479.9506,16.8781 479.9163,16.8438 Q479.8538,16.7781 479.7413,16.7406 Q479.6288,16.7 479.5163,16.7 Q479.3756,16.7 479.2569,16.7563 Q479.1413,16.8125 479.0506,16.9375 Q478.96,17.0625 478.96,17.2344 L478.96,17.4188 Q478.96,17.625 479.1288,17.7625 Q479.2975,17.9 479.5975,17.9 Q479.7756,17.9 479.9006,17.8594 Q479.9725,17.8375 480.0538,17.7656 Q480.1069,17.725 480.135,17.7125 Q480.1631,17.7 480.1975,17.7 Q480.2631,17.7 480.31,17.7531 Q480.36,17.8031 480.36,17.875 Q480.36,17.9438 480.2913,18.025 Q480.1913,18.1438 480.0319,18.2094 Q479.8225,18.3 479.5663,18.3 Q479.2663,18.3 479.0256,18.1813 Q478.8319,18.0875 478.6944,17.8844 Q478.56,17.6813 478.56,17.4406 L478.56,17.2219 Q478.56,16.9719 478.6788,16.7531 Q478.8006,16.5344 479.01,16.4188 Q479.2225,16.3 479.46,16.3 Q479.6038,16.3 479.7288,16.35 Q479.8538,16.4 479.96,16.5 Z " fill="#000000"/><text fill="#000000" font-family="sans-serif" font-size="2.4" lengthAdjust="spacingAndGlyphs" textLength="20.8" x="482.44" y="18.182">CollectionCategory</text><line style="stroke:#A80036;stroke-width:0.30000000000000004;" x1="476.4" x2="504" y1="20.4" y2="20.4"/><ellipse cx="478.4" cy="22.6" fill="none" rx="0.6" ry="0.6" style="stroke:#038048;stroke-width:0.2;"/><text fill="#000000" font-family="sans-serif" font-size="2.2" lengthAdjust="spacingAndGlyphs" textLength="10.2" x="480.2" y="23.4838">dynamic id</text><ellipse cx="478.4" cy="25.3672" fill="none" rx="0.6" ry="0.6" style="stroke:#038048;stroke-width:0.2;"/><text fill="#000000" font-family="sans-serif" font-size="2.2" lengthAdjust="spacingAndGlyphs" textLength="22.6" x="480.2" y="26.251">dynamic categoryName</text><ellipse cx="478.4" cy="28.1344" fill="none" rx="0.6" ry="0.6" style="stroke:#038048;stroke-width:0.2;"/><text fill="#000000" font-family="sans-serif" font-size="2.2" lengthAdjust="spacingAndGlyphs" textLength="22.8" x="480.2" y="29.0182">dynamic categoryImage</text><line style="stroke:#A80036;stroke-width:0.30000000000000004;" x1="476.4" x2="504" y1="30.3016" y2="30.3016"/><ellipse cx="478.4" cy="32.5016" fill="#84BE84" rx="0.6" ry="0.6" style="stroke:#038048;stroke-width:0.2;"/><text fill="#000000" font-family="sans-serif" font-size="2.2" lengthAdjust="spacingAndGlyphs" textLength="12.6" x="480.2" y="33.3854">Map toJson()</text><!--MD5=[373f11ad1b940d4c3eecbe76b8471ab1]
class outfitted_flutter_mobile::model::Wishlist.dart::WishList--><rect codeLine="73" fill="#FEFECE" filter="url(#f1ncepivzpc92k)" height="12.3672" id="outfitted_flutter_mobile::model::Wishlist.dart::WishList" style="stroke:#A80036;stroke-width:0.30000000000000004;" width="20.6" x="382.5" y="18.1"/><ellipse cx="387.57" cy="21.3" fill="#ADD1B2" rx="2.2" ry="2.2" style="stroke:#A80036;stroke-width:0.2;"/><path d="M387.97,20.6 Q388.0106,20.5 388.0575,20.45 Q388.1044,20.4 388.1575,20.4 Q388.2513,20.4 388.3106,20.4563 Q388.37,20.5125 388.37,20.6438 L388.37,20.9563 Q388.37,21.0875 388.3138,21.1438 Q388.2575,21.2 388.17,21.2 Q388.0919,21.2 388.0419,21.1656 Q387.9919,21.1313 387.97,21.0406 Q387.9606,20.9781 387.9263,20.9438 Q387.8638,20.8781 387.7513,20.8406 Q387.6388,20.8 387.5263,20.8 Q387.3856,20.8 387.2669,20.8563 Q387.1513,20.9125 387.0606,21.0375 Q386.97,21.1625 386.97,21.3344 L386.97,21.5188 Q386.97,21.725 387.1388,21.8625 Q387.3075,22 387.6075,22 Q387.7856,22 387.9106,21.9594 Q387.9825,21.9375 388.0638,21.8656 Q388.1169,21.825 388.145,21.8125 Q388.1731,21.8 388.2075,21.8 Q388.2731,21.8 388.32,21.8531 Q388.37,21.9031 388.37,21.975 Q388.37,22.0438 388.3013,22.125 Q388.2013,22.2438 388.0419,22.3094 Q387.8325,22.4 387.5763,22.4 Q387.2763,22.4 387.0356,22.2813 Q386.8419,22.1875 386.7044,21.9844 Q386.57,21.7813 386.57,21.5406 L386.57,21.3219 Q386.57,21.0719 386.6888,20.8531 Q386.8106,20.6344 387.02,20.5188 Q387.2325,20.4 387.47,20.4 Q387.6138,20.4 387.7388,20.45 Q387.8638,20.5 387.97,20.6 Z " fill="#000000"/><text fill="#000000" font-family="sans-serif" font-size="2.4" lengthAdjust="spacingAndGlyphs" textLength="9.6" x="390.83" y="22.282">WishList</text><line style="stroke:#A80036;stroke-width:0.30000000000000004;" x1="382.7" x2="402.9" y1="24.5" y2="24.5"/><ellipse cx="384.7" cy="26.7" fill="none" rx="0.6" ry="0.6" style="stroke:#038048;stroke-width:0.2;"/><text fill="#000000" font-family="sans-serif" font-size="2.2" lengthAdjust="spacingAndGlyphs" textLength="15.4" x="386.5" y="27.5838">Product product</text><line style="stroke:#A80036;stroke-width:0.30000000000000004;" x1="382.7" x2="402.9" y1="28.8672" y2="28.8672"/><!--MD5=[083f454236045599a4eb28ffd3d18090]
reverse link flutter::src::foundation::change_notifier.dart::ChangeNotifier to outfitted_flutter_mobile::counters::address_changer.dart::AddressChanger--><path codeLine="9" d="M162.974,30.824 C142.4,40.232 103.928,57.826 83.162,67.324 " fill="none" id="flutter::src::foundation::change_notifier.dart::ChangeNotifier-backto-outfitted_flutter_mobile::counters::address_changer.dart::AddressChanger" style="stroke:#A80036;stroke-width:0.2;"/><polygon fill="none" points="162.438,29.528,166.658,29.138,163.604,32.074,162.438,29.528" style="stroke:#A80036;stroke-width:0.2;"/><!--MD5=[7c1376c9f66e6a0f0d0ddb70e8a2cfcf]
reverse link flutter::src::foundation::change_notifier.dart::ChangeNotifier to outfitted_flutter_mobile::counters::cart_item_counter.dart::CartItemCounter--><path codeLine="17" d="M172.84,32.77 C168.578,41.674 161.824,55.784 157.452,64.918 " fill="none" id="flutter::src::foundation::change_notifier.dart::ChangeNotifier-backto-outfitted_flutter_mobile::counters::cart_item_counter.dart::CartItemCounter" style="stroke:#A80036;stroke-width:0.2;"/><polygon fill="none" points="171.59,32.142,174.58,29.138,174.116,33.35,171.59,32.142" style="stroke:#A80036;stroke-width:0.2;"/><!--MD5=[fda682bf455ccade51ec568f165b5b74]
reverse link flutter::src::foundation::change_notifier.dart::ChangeNotifier to outfitted_flutter_mobile::counters::item_quantity.dart::ItemQuantity--><path codeLine="25" d="M180.76,32.77 C185.022,41.674 191.776,55.784 196.148,64.918 " fill="none" id="flutter::src::foundation::change_notifier.dart::ChangeNotifier-backto-outfitted_flutter_mobile::counters::item_quantity.dart::ItemQuantity" style="stroke:#A80036;stroke-width:0.2;"/><polygon fill="none" points="179.484,33.35,179.02,29.138,182.01,32.142,179.484,33.35" style="stroke:#A80036;stroke-width:0.2;"/><!--MD5=[d6117eceab04f1e776b274a226fcdde8]
reverse link flutter::src::foundation::change_notifier.dart::ChangeNotifier to outfitted_flutter_mobile::counters::total_amount.dart::TotalAmount--><path codeLine="33" d="M190.734,30.802 C209.922,39.48 244.568,55.15 266.314,64.986 " fill="none" id="flutter::src::foundation::change_notifier.dart::ChangeNotifier-backto-outfitted_flutter_mobile::counters::total_amount.dart::TotalAmount" style="stroke:#A80036;stroke-width:0.2;"/><polygon fill="none" points="190.122,32.062,187.054,29.138,191.276,29.51,190.122,32.062" style="stroke:#A80036;stroke-width:0.2;"/><!--MD5=[9eda6f61942064402cc9e87acf14da61]
reverse link outfitted_flutter_mobile::model::Cart.dart::Cart to outfitted_flutter_mobile::model::Product.dart::Product--><path codeLine="51" d="M364.036,34.468 C365.982,40.466 368.52,48.286 370.82,55.372 " fill="none" id="outfitted_flutter_mobile::model::Cart.dart::Cart-backto-outfitted_flutter_mobile::model::Product.dart::Product" style="stroke:#A80036;stroke-width:0.2;"/><polygon fill="#FFFFFF" points="363.212,31.934,362.8219,33.3225,363.9535,34.2166,364.3436,32.8281,363.212,31.934" style="stroke:#A80036;stroke-width:0.2;"/><!--MD5=[bb1c849c4812ac84acae97a07ea5293b]
reverse link outfitted_flutter_mobile::model::Wishlist.dart::WishList to outfitted_flutter_mobile::model::Product.dart::Product--><path codeLine="77" d="M390.034,33.024 C388.038,39.17 385.27,47.702 382.78,55.372 " fill="none" id="outfitted_flutter_mobile::model::Wishlist.dart::WishList-backto-outfitted_flutter_mobile::model::Product.dart::Product" style="stroke:#A80036;stroke-width:0.2;"/><polygon fill="#FFFFFF" points="390.838,30.546,389.7067,31.4405,390.0973,32.8288,391.2286,31.9343,390.838,30.546" style="stroke:#A80036;stroke-width:0.2;"/><!--MD5=[63c4f86bf33e75cb1605b5771650cafc]
@startuml
set namespaceSeparator ::

class "outfitted_flutter_mobile::counters::address_changer.dart::AddressChanger" {
  -int _counter
  +int count
  +dynamic displayResult()
}

"flutter::src::foundation::change_notifier.dart::ChangeNotifier" <|- - "outfitted_flutter_mobile::counters::address_changer.dart::AddressChanger"

class "outfitted_flutter_mobile::counters::cart_item_counter.dart::CartItemCounter" {
  -int _counter
  +int count
  +Future displayItemCounterResult()
}

"flutter::src::foundation::change_notifier.dart::ChangeNotifier" <|- - "outfitted_flutter_mobile::counters::cart_item_counter.dart::CartItemCounter"

class "outfitted_flutter_mobile::counters::item_quantity.dart::ItemQuantity" {
  -int _numberOfItems
  +int numberOfItems
  +dynamic displayItemQuantity()
}

"flutter::src::foundation::change_notifier.dart::ChangeNotifier" <|- - "outfitted_flutter_mobile::counters::item_quantity.dart::ItemQuantity"

class "outfitted_flutter_mobile::counters::total_amount.dart::TotalAmount" {
  -double _totalAmount
  +double totalAmount
  +dynamic displayTotalAmountResult()
}

"flutter::src::foundation::change_notifier.dart::ChangeNotifier" <|- - "outfitted_flutter_mobile::counters::total_amount.dart::TotalAmount"

class "outfitted_flutter_mobile::model::Address.dart::Address" {
  +String name
  +String streetAndNumber
  +String postCode
  +String cityOrTown
  +String phone
  +String country
  +Map createAddressToJson()
  +Address getAddressFromJson()
}

class "outfitted_flutter_mobile::model::Cart.dart::Cart" {
  +Product product
  +int amountItems
}

"outfitted_flutter_mobile::model::Cart.dart::Cart" o- - "outfitted_flutter_mobile::model::Product.dart::Product"

class "outfitted_flutter_mobile::model::CollectionCategory.dart::CollectionCategory" {
  +dynamic id
  +dynamic categoryName
  +dynamic categoryImage
  +Map toJson()
}

class "outfitted_flutter_mobile::model::Product.dart::Product" {
  +String id
  +String name
  +String productImage
  +String supplier
  +String productDescription
  +int stock
  +double price
  +Product getProductFromJson()
  +Map toJson()
  +Map toJsonApi()
}

class "outfitted_flutter_mobile::model::Wishlist.dart::WishList" {
  +Product product
}

"outfitted_flutter_mobile::model::Wishlist.dart::WishList" o- - "outfitted_flutter_mobile::model::Product.dart::Product"

@enduml

PlantUML version 1.2020.23(Sun Dec 13 20:14:58 CET 2020)
(GPL source distribution)
Java Runtime: OpenJDK Runtime Environment
JVM: OpenJDK 64-Bit Server VM
Default Encoding: Cp1252
Language: en
Country: GB
--></g></svg>